# xmcd
#
# Track frame offsets:
#	150
#	2856
#	14238
#	23190
#	39089
#	54225
#	71914
#	90467
#	109995
#	122826
#	133368
#	148920
#	163962
#
# Disc length: 2374 seconds
#
# Revision: 0
# Processed by: cddbd v1.5.1PL0 Copyright (c) Steve Scherf et al.
# Submitted via: EasyCDDAExtractor 4.6.9.1
#
DISCID=bf09440d
DTITLE=The Punkin Holler Boys - Incan Flutes
DYEAR=1999
DGENRE=Bluegrass
TTITLE0=Incan Flutes
TTITLE1=Lately I've Been Thinking
TTITLE2=Punkin Holler Breakdown
TTITLE3=Too Much Prozec
TTITLE4=Sharp as a Tack
TTITLE5=Cigarette
TTITLE6=Land That I Come From
TTITLE7=Daddy Bought A Cadillac 
TTITLE8=Turn Blue Like The Sea
TTITLE9=Sissykins Missykin
TTITLE10=Lay Me Down
TTITLE11=Reflective Song
TTITLE12=C to F Song
EXTD=
EXTT0=
EXTT1=
EXTT2=
EXTT3=
EXTT4=
EXTT5=
EXTT6=
EXTT7=
EXTT8=
EXTT9=
EXTT10=
EXTT11=
EXTT12=
PLAYORDER=
